<svg width="512" height="512" xmlns="http://www.w3.org/2000/svg" xmlns:xlink="http://www.w3.org/1999/xlink" version="1.1">
 <defs id="defs1">
  <linearGradient  id="linearGradient110">
   <stop stop-color="#ff3900" id="stop110" offset="0"/>
   <stop stop-color="#ffa100" id="stop111" offset="1"/>
  </linearGradient>
  <radialGradient gradientUnits="userSpaceOnUse" gradientTransform="matrix(1,0,0,0.86904715,0,33.484668)" r="201.20703" fy="255.70019" fx="255.70117" cy="255.70019" cx="255.70117" id="radialGradient111" xlink:href="#linearGradient110" />
  <radialGradient r="201.20703" fy="255.70019" fx="255.70117" cy="255.70019" cx="255.70117" gradientTransform="matrix(1,0,0,0.86904715,-3.3874963,33.484668)" gradientUnits="userSpaceOnUse" id="radialGradient130" xlink:href="#linearGradient110" />
  <radialGradient r="201.20703" fy="255.70019" fx="255.70117" cy="255.70019" cx="255.70117" gradientTransform="matrix(1,0,0,0.86904715,-1.6937482,37.295601)" gradientUnits="userSpaceOnUse" id="radialGradient131" xlink:href="#linearGradient110" />
  <radialGradient r="201.20703" fy="255.70019" fx="255.70117" cy="255.70019" cx="255.70117" gradientTransform="matrix(1,0,0,0.86904715,1.6937482,36.872164)" gradientUnits="userSpaceOnUse" id="radialGradient132" xlink:href="#linearGradient110" />
  <radialGradient r="201.20703" fy="255.70019" fx="255.70117" cy="255.70019" cx="255.70117" gradientTransform="matrix(1,0,0,0.86904715,0,33.061231)" gradientUnits="userSpaceOnUse" id="radialGradient133" xlink:href="#linearGradient110" />
  <radialGradient r="201.20703" fy="255.70019" fx="255.70117" cy="255.70019" cx="255.70117" gradientTransform="matrix(1,0,0,0.86904715,-3.3874963,33.061231)" gradientUnits="userSpaceOnUse" id="radialGradient134" xlink:href="#linearGradient110" />
  <radialGradient r="201.20703" fy="255.70019" fx="255.70117" cy="255.70019" cx="255.70117" gradientTransform="matrix(1,0,0,0.86904715,-0.84687409,35.178416)" gradientUnits="userSpaceOnUse" id="radialGradient135" xlink:href="#linearGradient110" />
  <radialGradient r="201.20703" fy="255.70019" fx="255.70117" cy="255.70019" cx="255.70117" gradientTransform="matrix(1,0,0,0.86904715,-2.1171852,31.79092)" gradientUnits="userSpaceOnUse" id="radialGradient136" xlink:href="#linearGradient110" />
 </defs>
 <g>
  <title>Layer 1</title>
  <path fill="url(#radialGradient111)" d="m137.19336,335.78516l8.89258,22.44336l9.3164,-11.4336l-18.20898,-11.00976z" id="path4"/>
  <path fill="url(#radialGradient111)" d="m151.93555,285.29297l-62.42578,48.43359l74.74023,-17.84375l-12.31445,-30.58984z" id="path122"/>
  <path fill="url(#radialGradient111)" d="m220.20312,284.79688l-40.88281,43.14453l65.28907,-37.61329l-24.40626,-5.53124z" id="path121"/>
  <path fill="url(#radialGradient134)" d="m216.11445,254.91445l-33.14257,-54.28906l-43.23829,75.61133l76.38086,-21.32227z" id="path120"/>
  <path fill="url(#radialGradient111)" d="m272.2832,258.49414l-7.96289,5.84375l12.57422,7.9707l-4.61133,-13.81445z" id="path119"/>
  <path fill="url(#radialGradient111)" d="m254.48633,250.25195l-39.80469,14.82032l35.57031,0l4.23438,-14.82032z" id="path126"/>
  <path fill="url(#radialGradient111)" d="m280.73828,242.62891l7.62305,9.74023l4.65625,-8.89258l-12.2793,-0.84765z" id="path125"/>
  <path fill="url(#radialGradient135)" d="m268.03399,243.24844l-71.4707,-59.82813l-11.05078,19.32227l33.14257,54.28906l49.37891,-13.7832z" id="path124"/>
  <path fill="url(#radialGradient130)" d="m135.41328,430.55859l77.66992,-113.95898l-161.97656,113.95898l84.30664,0z" id="path123"/>
  <path fill="url(#radialGradient131)" d="m254.56797,292.4164l-39.79102,27.99414l-77.66992,113.95898l169.61524,0l-52.1543,-141.95312z" id="path130"/>
  <path fill="url(#radialGradient132)" d="m257.95547,291.99297l52.1543,141.95312l148.49218,0l-57.36914,-100.17187l-142.97851,-41.99219l-0.29883,0.21094z" id="path129"/>
  <path fill="url(#radialGradient133)" d="m300.86133,158.10976l-31.46485,82.87696l68.94336,-19.24414l-37.47851,-63.63282zm54.20898,43.50391l-12.92969,3.27148l19.22266,1.59571l-6.29297,-4.86719zm-19.09375,2.83594l0.58008,8.01953l7.58594,-3.00781l-8.16602,-5.01172zm31.80469,20.39843l-5.0957,6.22071l7.57422,3.03515l-2.47852,-9.25586zm-26.44727,3.48243l-84.77343,59.64062l142.97851,41.99219l-58.20508,-101.63281z" id="path128"/>
  <path fill="url(#radialGradient136)"  d="m252.98437,79.14805l-57.6914,100.88476l71.4707,59.82813l0.51562,-0.14453l31.46485,-82.87696l-45.75977,-77.6914z" id="path127"/>
  <path fill="#000000"   d="m352.4482,231.935l-10.5688,-18.30569l21.13759,-0.00001l-10.5688,18.3057z"           id="path18" />
 </g>
</svg>
